# xmcd
#
# Track frame offsets:
#	150
#	6667
#	21785
#	40257
#	57722
#	79042
#	95292
#	115767
#	133750
#	155200
#	173332
#	185962
#	201127
#
# Disc length: 2854 seconds
#
# Revision: 1
# Processed by: cddbd v1.5.1PL0 Copyright (c) Steve Scherf et al.
# Submitted via: audiograbber 1.81.02
#
DISCID=b30b240d
DTITLE=Christopher Kirchenmaus - Im Mäuse-Phantasialand
DYEAR=1900
DGENRE=
TTITLE0=Vorstellung
TTITLE1=Christopher Kirchenmaus
TTITLE2=Im Phantasialand
TTITLE3=Mäusemengen
TTITLE4=Was wollen die hier 
TTITLE5=Ein bisschen Toleranz
TTITLE6=Mit der Galaxie
TTITLE7=Das wäre Fein
TTITLE8=Immer ich
TTITLE9=Wir sind Piraten
TTITLE10=Wir suchen unsern Seppel
TTITLE11=99 Schäfchen
TTITLE12=Wieder gefunden
EXTD=
EXTT0=
EXTT1=
EXTT2=
EXTT3=
EXTT4=
EXTT5=
EXTT6=
EXTT7=
EXTT8=
EXTT9=
EXTT10=
EXTT11=
EXTT12=
PLAYORDER=
